<?xml version="1.0" encoding="UTF-8" standalone="no"?>
<svg
   xmlns:dc="http://purl.org/dc/elements/1.1/"
   xmlns:cc="http://creativecommons.org/ns#"
   xmlns:rdf="http://www.w3.org/1999/02/22-rdf-syntax-ns#"
   xmlns:svg="http://www.w3.org/2000/svg"
   xmlns="http://www.w3.org/2000/svg"
   xmlns:sodipodi="http://sodipodi.sourceforge.net/DTD/sodipodi-0.dtd"
   xmlns:inkscape="http://www.inkscape.org/namespaces/inkscape"
   version="1.1"
   id="svg2"
   xml:space="preserve"
   width="4946.6665"
   height="4946.6665"
   viewBox="0 0 4946.6665 4946.6665"
   sodipodi:docname="20943859.eps"><metadata
     id="metadata8"><rdf:RDF><cc:Work
         rdf:about=""><dc:format>image/svg+xml</dc:format><dc:type
           rdf:resource="http://purl.org/dc/dcmitype/StillImage" /></cc:Work></rdf:RDF></metadata><defs
     id="defs6"><clipPath
       clipPathUnits="userSpaceOnUse"
       id="clipPath22"><path
         d="m 16504.2,4550 c -538.3,0 -1067.8,26.1 -1584.4,78 -1596.9,160.3 -4809.9,482.8 -7280.84,2902.7 -8.97,8.8 -17.72,17.3 -26.65,26.2 H 26363 C 23403.2,5523.2 19790.4,4550 16504.2,4550 M 6283.9,9216.7 C 3138.16,14211.1 4318.92,22306.9 8520.54,27236.6 9116.95,27936.4 13178.4,32550 19397,32550 c 115.2,0 230.9,-1.6 347.6,-4.8 4696.5,-129.6 7947.1,-2840.7 8342.3,-3178.3 499.1,-426.4 1598.8,-1438.3 2578,-3030.2 2251.8,-3660.7 2412.3,-8688.7 691.4,-12749.9 l 119.4,8248.6 c 0,235.8 -267.9,688.1 -760.4,688.1 -18.3,0 -37,-0.6 -55.9,-1.9 l -2628.6,68 179.7,3691.5 -2683.9,2964.9 -14439.3,88.4 c -1.7,0 -3.5,0 -5.2,0 -472.1,0 -848.8,-395.2 -825.4,-867.4 l 262.7,-5424.3 -3386.28,87.7 c -9.7,0.2 -19.43,0.3 -29.1,0.3 -296.82,0 -581.99,-117.5 -792.67,-327.5 -217.54,-216.8 -336.57,-513.2 -329.31,-820.2 L 6283.9,9216.7"
         id="path20" /></clipPath><linearGradient
       x1="0"
       y1="0"
       x2="1"
       y2="0"
       gradientUnits="userSpaceOnUse"
       gradientTransform="matrix(-20220.6,22606.5,22606.5,20220.6,33891.5,595.701)"
       spreadMethod="pad"
       id="linearGradient28"><stop
         style="stop-opacity:1;stop-color:#dae3fe"
         offset="0"
         id="stop24" /><stop
         style="stop-opacity:1;stop-color:#e9effd"
         offset="1"
         id="stop26" /></linearGradient><clipPath
       clipPathUnits="userSpaceOnUse"
       id="clipPath38"><path
         d="M 30830.2,7556.9 H 6757.79 c -244.84,0 -445.16,200.1 -445.16,444.7 L 6283.9,9216.7 5982.04,21983 c -7.26,307 111.77,603.4 329.31,820.2 210.68,210 495.85,327.5 792.67,327.5 9.67,0 19.4,-0.1 29.1,-0.3 l 3386.28,-87.7 25.6,-528.8 -3319.35,89 c -7.04,0.2 -14.1,0.3 -21.12,0.3 -208.28,0 -408.36,-82.6 -556.24,-230.1 -152.85,-152.5 -236.92,-361.1 -231.51,-576.9 L 6752.11,8428.3 c 0,-231.6 189.52,-421.2 421.16,-421.2 h 4074.13 l 2.7,-54.9 h 16068.2 l 2.7,54.9 h 2928.7 c 231.7,0 421.2,189.6 421.2,421.2 l 189,12558.4 c -21.6,734.8 -648.7,1012 -1052.6,1012 -11.5,0 -22.8,-0.2 -33.9,-0.7 l -1769.1,47.5 26.5,544.1 2628.6,-68 c 18.9,1.3 37.6,1.9 55.9,1.9 492.5,0 760.4,-452.3 760.4,-688.1 l -119.4,-8248.6 -80.9,-5585.2 c 0,-244.6 -200.3,-444.7 -445.2,-444.7"
         id="path36" /></clipPath><linearGradient
       x1="0"
       y1="0"
       x2="1"
       y2="0"
       gradientUnits="userSpaceOnUse"
       gradientTransform="matrix(-5685.39,17056.2,-17056.2,-5685.39,20992.8,8620.4)"
       spreadMethod="pad"
       id="linearGradient44"><stop
         style="stop-opacity:1;stop-color:#09005d"
         offset="0"
         id="stop40" /><stop
         style="stop-opacity:1;stop-color:#1a0f91"
         offset="1"
         id="stop42" /></linearGradient><clipPath
       clipPathUnits="userSpaceOnUse"
       id="clipPath54"><path
         d="M 30249.7,8007.1 H 27321 l 665.4,13670.2 1576.2,-42.3 c 1.9,0.1 8.8,0.3 20,0.3 87.5,0 434.2,-14.8 662.1,-233.1 137.6,-131.9 207.9,-316.9 209,-548.6 l -57.3,-3900.8 c -0.5,-34 26.7,-62.1 60.8,-62.6 h 1 c 33.6,0 61.1,27 61.6,60.8 l 57.3,3902 c -1.2,267.6 -84.3,482.4 -247.1,638.3 -256.3,245.6 -626.4,267.7 -738.7,267.7 -14.4,0 -24.6,-0.4 -29.7,-0.7 l -1569.2,42.1 11.9,245.1 1769.1,-47.5 c 11.1,0.5 22.4,0.7 33.9,0.7 403.9,0 1031,-277.2 1052.6,-1012 l -189,-12558.4 c 0,-231.6 -189.5,-421.2 -421.2,-421.2 m -19002.3,0 H 7173.27 c -231.64,0 -421.16,189.6 -421.16,421.2 l -335.33,13367.9 c -5.41,215.8 78.66,424.4 231.51,576.9 147.88,147.5 347.96,230.1 556.24,230.1 7.02,0 14.08,-0.1 21.12,-0.3 l 3319.35,-89 702.4,-14506.8"
         id="path52" /></clipPath><linearGradient
       x1="0"
       y1="0"
       x2="1"
       y2="0"
       gradientUnits="userSpaceOnUse"
       gradientTransform="matrix(-20736.1,-18205.8,-18205.8,20736.1,28286.3,23758.8)"
       spreadMethod="pad"
       id="linearGradient60"><stop
         style="stop-opacity:1;stop-color:#4042e2"
         offset="0"
         id="stop56" /><stop
         style="stop-opacity:1;stop-color:#4f52ff"
         offset="1"
         id="stop58" /></linearGradient><clipPath
       clipPathUnits="userSpaceOnUse"
       id="clipPath74"><path
         d="m 4416.3,6408.5 h 28267.4 c 31.1,0 56.5,25.4 56.5,56.5 v 1102.5 c 0,31 -25.4,56.5 -56.5,56.5 H 4416.3 c -31.09,0 -56.54,-25.5 -56.54,-56.5 V 6465 c 0,-31.1 25.45,-56.5 56.54,-56.5 z"
         id="path72" /></clipPath><linearGradient
       x1="0"
       y1="0"
       x2="1"
       y2="0"
       gradientUnits="userSpaceOnUse"
       gradientTransform="matrix(343.844,-14304.3,-14304.3,-343.844,18195.2,21775.4)"
       spreadMethod="pad"
       id="linearGradient80"><stop
         style="stop-opacity:1;stop-color:#09005d"
         offset="0"
         id="stop76" /><stop
         style="stop-opacity:1;stop-color:#1a0f91"
         offset="1"
         id="stop78" /></linearGradient><clipPath
       clipPathUnits="userSpaceOnUse"
       id="clipPath110"><path
         d="m 19091.8,22012.4 c -85,-5.6 -164.2,34 -208.2,104.7 l -739.5,1187.5 c -69.3,111.2 -32,263.7 83.4,340.4 115.2,76.6 264.7,48.6 334,-62.6 l 512.8,-824.3 676.7,1378.2 c 60.7,123.7 206.6,180.4 325.8,126.8 119.1,-53.7 166.5,-197.3 105.9,-320.9 l -874.5,-1782.5 c -40,-81.6 -119.6,-137.7 -207.8,-146.6 -2.9,-0.3 -5.7,-0.5 -8.6,-0.7 z"
         id="path108" /></clipPath><linearGradient
       x1="0"
       y1="0"
       x2="1"
       y2="0"
       gradientUnits="userSpaceOnUse"
       gradientTransform="matrix(224.156,-1927.74,-1927.74,-224.156,18792.5,26894.7)"
       spreadMethod="pad"
       id="linearGradient116"><stop
         style="stop-opacity:1;stop-color:#e1473d"
         offset="0"
         id="stop112" /><stop
         style="stop-opacity:1;stop-color:#e9605a"
         offset="1"
         id="stop114" /></linearGradient><clipPath
       clipPathUnits="userSpaceOnUse"
       id="clipPath126"><path
         d="m 8720.3,17583.8 c -46.11,0 -84.16,36.6 -85.58,83 -0.94,31.1 -20.73,771.6 197.27,1562.4 293.65,1065 882.56,1696.3 1703.11,1825.4 402,63.4 760.3,-31.6 1064.9,-282 992.6,-816.5 1087,-3007.1 1090.6,-3099.9 1.8,-47.3 -35.1,-87.1 -82.4,-88.9 -47.6,-1.1 -87,35.1 -88.8,82.4 -0.9,21.9 -95.1,2206.7 -1028.4,2974.2 -265.1,217.9 -577.7,300.4 -929.3,245 -1823.73,-287.1 -1756.61,-3184.1 -1755.71,-3213.4 1.44,-47.3 -35.74,-86.8 -83.03,-88.2 z"
         id="path124" /></clipPath><linearGradient
       x1="0"
       y1="0"
       x2="1"
       y2="0"
       gradientUnits="userSpaceOnUse"
       gradientTransform="matrix(-3837.93,-9389.24,-9389.24,3837.93,13375.3,24875)"
       spreadMethod="pad"
       id="linearGradient132"><stop
         style="stop-opacity:1;stop-color:#e1473d"
         offset="0"
         id="stop128" /><stop
         style="stop-opacity:1;stop-color:#e9605a"
         offset="1"
         id="stop130" /></linearGradient><clipPath
       clipPathUnits="userSpaceOnUse"
       id="clipPath142"><path
         d="m 5111.79,8204 1472.03,10151.1 5529.88,93 L 13896,7639.8 H 5590.62 c -295.43,0 -521.94,266.9 -478.83,564.2 z"
         id="path140" /></clipPath><linearGradient
       x1="0"
       y1="0"
       x2="1"
       y2="0"
       gradientUnits="userSpaceOnUse"
       gradientTransform="matrix(-7950,-11650.9,-11650.9,7950,12657.1,16539.9)"
       spreadMethod="pad"
       id="linearGradient148"><stop
         style="stop-opacity:1;stop-color:#ff928e"
         offset="0"
         id="stop144" /><stop
         style="stop-opacity:1;stop-color:#fe7062"
         offset="1"
         id="stop146" /></linearGradient><clipPath
       clipPathUnits="userSpaceOnUse"
       id="clipPath158"><path
         d="m 13187.6,18355.1 -1073.9,93 L 13896,7639.8 h 1066.2 c 216.2,0 377.7,202 333.7,417.3 z"
         id="path156" /></clipPath><linearGradient
       x1="0"
       y1="0"
       x2="1"
       y2="0"
       gradientUnits="userSpaceOnUse"
       gradientTransform="matrix(-5825.45,-1850.44,-1850.44,5825.45,22109.5,15758.3)"
       spreadMethod="pad"
       id="linearGradient164"><stop
         style="stop-opacity:1;stop-color:#ff928e"
         offset="0"
         id="stop160" /><stop
         style="stop-opacity:1;stop-color:#fe7062"
         offset="1"
         id="stop162" /></linearGradient><clipPath
       clipPathUnits="userSpaceOnUse"
       id="clipPath174"><path
         d="m 11416.7,17607 c -45.8,0 -83.8,36.2 -85.6,82.4 -0.8,22 -95.1,2206.8 -1028.4,2974.2 -265,217.9 -577.6,300.4 -929.21,245 -1822.32,-286.8 -1756.63,-3184.1 -1755.75,-3213.3 1.41,-47.3 -35.75,-86.8 -83.04,-88.2 -47.8,-2 -86.77,35.7 -88.23,83 -0.93,31.1 -20.73,771.6 197.29,1562.3 293.63,1065.1 882.55,1696.3 1703.1,1825.5 402.07,63.3 760.34,-31.6 1064.84,-282.1 992.7,-816.5 1087.1,-3007 1090.6,-3099.9 1.8,-47.3 -35,-87 -82.3,-88.8 -1.1,-0.1 -2.2,-0.1 -3.3,-0.1 z"
         id="path172" /></clipPath><linearGradient
       x1="0"
       y1="0"
       x2="1"
       y2="0"
       gradientUnits="userSpaceOnUse"
       gradientTransform="matrix(-3837.94,-9389.27,-9389.27,3837.94,12349,25294.4)"
       spreadMethod="pad"
       id="linearGradient180"><stop
         style="stop-opacity:1;stop-color:#e1473d"
         offset="0"
         id="stop176" /><stop
         style="stop-opacity:1;stop-color:#e9605a"
         offset="1"
         id="stop178" /></linearGradient><clipPath
       clipPathUnits="userSpaceOnUse"
       id="clipPath190"><path
         d="m 26172.3,5457.6 c 362.4,-31.3 991.2,-82.2 1487,-104 298,-13.1 469.6,16 568.4,55.6 -0.2,-11.1 -0.5,-21.7 -0.9,-31.4 -2.3,-52.2 -44.7,-93.9 -97.4,-96.9 -936.8,-52.3 -1681.9,-18.1 -1947.1,-1.9 -54.8,3.3 -87.5,62.9 -59.5,109.7 14.1,23.4 31,46.3 49.5,68.9 z"
         id="path188" /></clipPath><linearGradient
       x1="0"
       y1="0"
       x2="1"
       y2="0"
       gradientUnits="userSpaceOnUse"
       gradientTransform="matrix(-2115.14,0,0,-2115.14,28227.7,5355.3)"
       spreadMethod="pad"
       id="linearGradient196"><stop
         style="stop-opacity:1;stop-color:#4042e2"
         offset="0"
         id="stop192" /><stop
         style="stop-opacity:1;stop-color:#4f52ff"
         offset="1"
         id="stop194" /></linearGradient><clipPath
       clipPathUnits="userSpaceOnUse"
       id="clipPath206"><path
         d="m 27659.3,5353.6 c -495.8,21.8 -1124.6,72.7 -1487,104 356.3,437.1 1487,731.7 1487,731.7 h 319.4 c 219.6,-316.6 251.4,-618.1 249,-780.1 -98.8,-39.6 -270.4,-68.7 -568.4,-55.6 z"
         id="path204" /></clipPath><linearGradient
       x1="0"
       y1="0"
       x2="1"
       y2="0"
       gradientUnits="userSpaceOnUse"
       gradientTransform="matrix(-2055.53,0,0,-2055.53,28227.8,5769.8)"
       spreadMethod="pad"
       id="linearGradient212"><stop
         style="stop-opacity:1;stop-color:#09005d"
         offset="0"
         id="stop208" /><stop
         style="stop-opacity:1;stop-color:#1a0f91"
         offset="1"
         id="stop210" /></linearGradient><clipPath
       clipPathUnits="userSpaceOnUse"
       id="clipPath222"><path
         d="m 28032.4,6710.6 -29.9,-591.4 c -3.2,-64 -51.1,-117.8 -115.3,-127 -63.8,-9.1 -149.2,-10.3 -239.9,19.9 -55.7,18.6 -97.1,65.5 -107.4,122.8 l -103.2,575.7 z"
         id="path220" /></clipPath><linearGradient
       x1="0"
       y1="0"
       x2="1"
       y2="0"
       gradientUnits="userSpaceOnUse"
       gradientTransform="matrix(-595.789,0,0,-595.789,28032.4,6348.6)"
       spreadMethod="pad"
       id="linearGradient228"><stop
         style="stop-opacity:1;stop-color:#febbba"
         offset="0"
         id="stop224" /><stop
         style="stop-opacity:1;stop-color:#ff928e"
         offset="1"
         id="stop226" /></linearGradient><clipPath
       clipPathUnits="userSpaceOnUse"
       id="clipPath238"><path
         d="m 31739,4775.4 c 157.1,28.3 228.2,133.8 258.1,246.6 0.1,-1 0.3,-2 0.5,-3 23.2,-119 -30.4,-242.3 -137.6,-301 -129.5,-70.8 -271.1,-82.9 -381,-77.1 -118,6.3 -226.2,69.4 -285.7,170.3 l -0.9,1.6 c 118.4,-75.7 284.6,-84.7 546.6,-37.4 z"
         id="path236" /></clipPath><linearGradient
       x1="0"
       y1="0"
       x2="1"
       y2="0"
       gradientUnits="userSpaceOnUse"
       gradientTransform="matrix(-810.554,0,0,-810.554,32002.9,4830.8)"
       spreadMethod="pad"
       id="linearGradient244"><stop
         style="stop-opacity:1;stop-color:#4042e2"
         offset="0"
         id="stop240" /><stop
         style="stop-opacity:1;stop-color:#4f52ff"
         offset="1"
         id="stop242" /></linearGradient><clipPath
       clipPathUnits="userSpaceOnUse"
       id="clipPath254"><path
         d="m 30998.1,6528.4 h 263.4 c 401.2,10.6 653.1,-1082.9 735.6,-1506.4 -29.9,-112.8 -101,-218.3 -258.1,-246.6 -262,-47.3 -428.2,-38.3 -546.6,37.4 -216.7,368.6 -324.2,908.4 -375.8,1223.5 -58.8,358.3 181.5,492.1 181.5,492.1 z"
         id="path252" /></clipPath><linearGradient
       x1="0"
       y1="0"
       x2="1"
       y2="0"
       gradientUnits="userSpaceOnUse"
       gradientTransform="matrix(-1189.74,0,0,-1189.74,31997.1,5637.4)"
       spreadMethod="pad"
       id="linearGradient260"><stop
         style="stop-opacity:1;stop-color:#09005d"
         offset="0"
         id="stop256" /><stop
         style="stop-opacity:1;stop-color:#1a0f91"
         offset="1"
         id="stop258" /></linearGradient><clipPath
       clipPathUnits="userSpaceOnUse"
       id="clipPath270"><path
         d="m 31227.7,7077.4 146.2,-581.7 c 17.9,-71.3 -16.2,-145.1 -82.1,-178.9 -81.8,-42 -197,-86.1 -302.9,-73.4 -49.8,6 -91.1,41.1 -107.6,88 l -214.7,612 z"
         id="path268" /></clipPath><linearGradient
       x1="0"
       y1="0"
       x2="1"
       y2="0"
       gradientUnits="userSpaceOnUse"
       gradientTransform="matrix(-712.031,0,0,-712.031,31378.6,6659.3)"
       spreadMethod="pad"
       id="linearGradient276"><stop
         style="stop-opacity:1;stop-color:#febbba"
         offset="0"
         id="stop272" /><stop
         style="stop-opacity:1;stop-color:#ff928e"
         offset="1"
         id="stop274" /></linearGradient><clipPath
       clipPathUnits="userSpaceOnUse"
       id="clipPath286"><path
         d="m 26083.1,14738.2 c 0,0 1306.9,-8169.3 1285.4,-8214.2 0,0 360.9,-164.1 754.4,-21 0,0 -118.1,4367.1 -395.1,6041.6 0,0 2230.5,-3903.3 2938.8,-5848.3 0,0 369.4,44.1 675.2,245.3 0,0 -2401.5,7025.8 -3042.3,7961.6 z"
         id="path284" /></clipPath><linearGradient
       x1="0"
       y1="0"
       x2="1"
       y2="0"
       gradientUnits="userSpaceOnUse"
       gradientTransform="matrix(-2467.25,10965.6,10965.6,2467.25,29805,4733.7)"
       spreadMethod="pad"
       id="linearGradient292"><stop
         style="stop-opacity:1;stop-color:#09005d"
         offset="0"
         id="stop288" /><stop
         style="stop-opacity:1;stop-color:#1a0f91"
         offset="1"
         id="stop290" /></linearGradient><clipPath
       clipPathUnits="userSpaceOnUse"
       id="clipPath302"><path
         d="m 27675.7,12587.1 c 7,0 14,1.9 20.4,5.9 18.1,11.3 23.5,35.1 12.2,53.2 l -488.3,780.1 c -5.7,9 -14.8,15.3 -25.1,17.4 l -359.5,72.3 c -21,4.2 -41.2,-9.4 -45.4,-30.2 -4.2,-20.9 9.3,-41.3 30.2,-45.5 l 343.1,-69 479.6,-766 c 7.3,-11.7 19.9,-18.2 32.8,-18.2 z"
         id="path300" /></clipPath><linearGradient
       x1="0"
       y1="0"
       x2="1"
       y2="0"
       gradientUnits="userSpaceOnUse"
       gradientTransform="matrix(-3632.34,-5688.39,-5688.39,3632.34,30030.8,17404.1)"
       spreadMethod="pad"
       id="linearGradient308"><stop
         style="stop-opacity:1;stop-color:#cb236d"
         offset="0"
         id="stop304" /><stop
         style="stop-opacity:1;stop-color:#4c246d"
         offset="1"
         id="stop306" /></linearGradient><clipPath
       clipPathUnits="userSpaceOnUse"
       id="clipPath318"><path
         d="m 20085.7,22737.8 c 0,0 881.9,-194.5 1418.3,-442.2 106.5,-49.2 191.5,-135.2 239.9,-241.2 160.4,-351.4 640.4,-1232.6 1571.2,-1653.1 -134.1,-177.9 -349.9,-548 -443.9,-1170 -559.1,416.1 -1041.7,1111 -1273.4,2250.6 0,0 -176.5,-95.9 -396.6,11 -116.3,56.5 -250.5,136.6 -351.3,199.6 -100.5,62.7 -175.3,160.3 -204.3,274.3 -38.4,150.5 -15.8,282.8 -15.8,424.8 l -453.3,140.5 c 0,0 -136.3,51.4 -90.8,205.7 z"
         id="path316" /></clipPath><linearGradient
       x1="0"
       y1="0"
       x2="1"
       y2="0"
       gradientUnits="userSpaceOnUse"
       gradientTransform="matrix(2820.04,-3668.79,3668.79,2820.04,21585,21657.4)"
       spreadMethod="pad"
       id="linearGradient324"><stop
         style="stop-opacity:1;stop-color:#febbba"
         offset="0"
         id="stop320" /><stop
         style="stop-opacity:1;stop-color:#ff928e"
         offset="1"
         id="stop322" /></linearGradient><clipPath
       clipPathUnits="userSpaceOnUse"
       id="clipPath334"><path
         d="m 22871.2,19231.3 c 94,622 309.8,992.1 443.9,1170 578.2,-261.3 1330.4,-344.8 2288.2,-12.9 88.3,30.6 180.4,48.5 273.7,54 509.9,29.9 2190.2,84.5 3580.6,-374.9 292.6,-96.7 529.6,-313 651.7,-593.3 376.1,-863.1 985,-2828.7 -705.4,-3821.1 -129.9,322.4 -279.8,581.6 -407.9,772.1 272.2,459.1 352.8,1086.3 -130.3,1903 -352.2,-951.2 -517.5,-2339 -552,-2953.2 -11.4,-202.2 24.1,-404.1 103.4,-590.7 l 8.7,-20.4 c 17,-40 -6.4,-85.9 -49.1,-95.5 -951.6,-213.7 -1941.4,-155.7 -2237.1,-131.2 -52.8,4.3 -96.7,42.1 -108.8,93.1 -462.7,1949.9 -463.8,3280 -350.5,4120.8 -432.9,-96.8 -1756.6,-303.2 -2809.1,480.2 z"
         id="path332" /></clipPath><linearGradient
       x1="0"
       y1="0"
       x2="1"
       y2="0"
       gradientUnits="userSpaceOnUse"
       gradientTransform="matrix(-8087.09,-4249.15,-4249.15,8087.09,36079,22910.2)"
       spreadMethod="pad"
       id="linearGradient340"><stop
         style="stop-opacity:1;stop-color:#ff928e"
         offset="0"
         id="stop336" /><stop
         style="stop-opacity:1;stop-color:#fe7062"
         offset="1"
         id="stop338" /></linearGradient><clipPath
       clipPathUnits="userSpaceOnUse"
       id="clipPath350"><path
         d="m 25678.4,18698.6 c 19.1,0 35.7,14.2 38.3,33.6 108.6,820.9 330,1179.2 332.1,1182.7 11.4,18 6.1,41.9 -11.9,53.3 -18,11.3 -41.8,6 -53.2,-11.9 -9.5,-14.9 -232.3,-373.6 -343.6,-1214 -2.8,-21.1 12.1,-40.5 33.2,-43.3 1.8,-0.3 3.4,-0.4 5.1,-0.4 z"
         id="path348" /></clipPath><linearGradient
       x1="0"
       y1="0"
       x2="1"
       y2="0"
       gradientUnits="userSpaceOnUse"
       gradientTransform="matrix(415.025,0,0,-415.025,25639.8,19336.4)"
       spreadMethod="pad"
       id="linearGradient356"><stop
         style="stop-opacity:1;stop-color:#e1473d"
         offset="0"
         id="stop352" /><stop
         style="stop-opacity:1;stop-color:#e9605a"
         offset="1"
         id="stop354" /></linearGradient><clipPath
       clipPathUnits="userSpaceOnUse"
       id="clipPath366"><path
         d="m 28026.9,21578.3 c 0,0 96.3,-1017.9 181.1,-1319 12.8,-45.7 -7,-93.9 -48.5,-117.6 -143.9,-82.2 -488.9,-216.3 -960.9,15 -76.5,37.5 -122.4,117.2 -118.9,201.6 l 41.6,983.6 z"
         id="path364" /></clipPath><linearGradient
       x1="0"
       y1="0"
       x2="1"
       y2="0"
       gradientUnits="userSpaceOnUse"
       gradientTransform="matrix(-308.516,1619.71,-1619.71,-308.516,27870.8,19286.2)"
       spreadMethod="pad"
       id="linearGradient372"><stop
         style="stop-opacity:1;stop-color:#febbba"
         offset="0"
         id="stop368" /><stop
         style="stop-opacity:1;stop-color:#ff928e"
         offset="1"
         id="stop370" /></linearGradient><clipPath
       clipPathUnits="userSpaceOnUse"
       id="clipPath382"><path
         d="m 27100.5,22880.5 c 0,0 -307.9,-707.3 -328.6,-1078.6 -20.6,-371.3 -100.6,-612.2 328.6,-686.9 429.3,-74.8 790.9,139.1 986.9,508.9 0,0 306.9,569.8 238.1,803.2 -68.9,233.4 -1225,453.4 -1225,453.4 z"
         id="path380" /></clipPath><linearGradient
       x1="0"
       y1="0"
       x2="1"
       y2="0"
       gradientUnits="userSpaceOnUse"
       gradientTransform="matrix(1760.27,-1346.88,1346.88,1760.27,27036,22257.9)"
       spreadMethod="pad"
       id="linearGradient388"><stop
         style="stop-opacity:1;stop-color:#febbba"
         offset="0"
         id="stop384" /><stop
         style="stop-opacity:1;stop-color:#ff928e"
         offset="1"
         id="stop386" /></linearGradient><clipPath
       clipPathUnits="userSpaceOnUse"
       id="clipPath398"><path
         d="m 27940.7,21889.8 -24.5,10.7 c -31.1,13.8 -44.4,50.8 -28.8,81 60.6,116.9 178.6,385 26.1,447.5 -196.4,80.6 -974.7,239.3 -1142.6,515.4 -161.4,265.4 -18.4,608 196.5,705.4 14.4,6.6 31.4,1.4 38.7,-12.6 l 17.9,-33.9 c 12.3,-23.2 46.6,-19.6 53.9,5.6 6.9,24.2 39.1,28.8 52.5,7.5 51.6,-82.6 190.9,-216.6 563.6,-285.3 529.5,-97.8 879.7,-312.1 888.4,-678 0.5,-23.3 25.3,-36.2 45.1,-24.1 39.1,23.8 101.7,35 185.3,-35.3 145.5,-122.3 86,-439.5 -232.9,-700.5 -15.1,-12.4 -15,-36 1.4,-46.7 57.8,-37.6 144,-127.2 -79.3,-246.5 -230.9,-123.5 -403.4,-113.3 -469.8,-102.4 -16.5,2.7 -27.1,18.7 -23.5,35.1 l 70.9,321.6 c 4,18.2 -9.9,35.5 -28.5,35.5 z"
         id="path396" /></clipPath><linearGradient
       x1="0"
       y1="0"
       x2="1"
       y2="0"
       gradientUnits="userSpaceOnUse"
       gradientTransform="matrix(-1639.42,-2110.75,2110.75,-1639.42,28275.2,23324.3)"
       spreadMethod="pad"
       id="linearGradient404"><stop
         style="stop-opacity:1;stop-color:#09005d"
         offset="0"
         id="stop400" /><stop
         style="stop-opacity:1;stop-color:#1a0f91"
         offset="1"
         id="stop402" /></linearGradient><clipPath
       clipPathUnits="userSpaceOnUse"
       id="clipPath414"><path
         d="m 27927.3,21821.9 c 0,0 117.5,451.8 320.1,325.2 202.6,-126.7 -105.1,-506.3 -268,-523.2 z"
         id="path412" /></clipPath><linearGradient
       x1="0"
       y1="0"
       x2="1"
       y2="0"
       gradientUnits="userSpaceOnUse"
       gradientTransform="matrix(1760.28,-1346.88,1346.88,1760.28,27254.3,22543.2)"
       spreadMethod="pad"
       id="linearGradient420"><stop
         style="stop-opacity:1;stop-color:#febbba"
         offset="0"
         id="stop416" /><stop
         style="stop-opacity:1;stop-color:#ff928e"
         offset="1"
         id="stop418" /></linearGradient><clipPath
       clipPathUnits="userSpaceOnUse"
       id="clipPath430"><path
         d="m 21362.6,21587 c 8.5,0 17.2,2.8 24.3,8.7 16.5,13.4 19,37.7 5.6,54.3 -33.4,41 -329.3,402.8 -443.3,467.2 -41.5,23.5 -66.2,47.7 -71.5,70 -2.5,10.7 -0.8,22.7 5.2,36.3 l 347.7,-69.7 197,-169 c 16.1,-13.9 40.6,-12.1 54.4,4.1 13.9,16.2 12.1,40.6 -4.1,54.5 l -204.7,175.6 c -5,4.3 -11,7.2 -17.5,8.6 l -385,77.1 c -15.4,3.1 -30.9,-3.4 -39.6,-16.3 -28.2,-41.8 -37.5,-80.8 -28.5,-118.9 10.6,-45.1 46.1,-84.2 108.6,-119.5 85.8,-48.4 333.3,-340.4 421.4,-448.8 7.6,-9.3 18.8,-14.2 30,-14.2 z"
         id="path428" /></clipPath><linearGradient
       x1="0"
       y1="0"
       x2="1"
       y2="0"
       gradientUnits="userSpaceOnUse"
       gradientTransform="matrix(692.075,0,0,-692.075,20799.3,21946.2)"
       spreadMethod="pad"
       id="linearGradient436"><stop
         style="stop-opacity:1;stop-color:#ff928e"
         offset="0"
         id="stop432" /><stop
         style="stop-opacity:1;stop-color:#fe7062"
         offset="1"
         id="stop434" /></linearGradient><clipPath
       clipPathUnits="userSpaceOnUse"
       id="clipPath446"><path
         d="m 27942.3,15163.9 -1361.1,-16.8 476.4,448.4 c 118.4,111.4 299.1,129.5 435.8,40.8 80,-51.9 166.8,-122.3 242,-215.6 0,0 849,310.2 1260.6,1004.5 128.1,-190.5 278,-449.7 407.9,-772.1 -368.9,-216.6 -847.2,-386.9 -1461.6,-489.2 z"
         id="path444" /></clipPath><linearGradient
       x1="0"
       y1="0"
       x2="1"
       y2="0"
       gradientUnits="userSpaceOnUse"
       gradientTransform="matrix(1232.06,-1848.08,1848.08,1232.06,26222.3,18135.6)"
       spreadMethod="pad"
       id="linearGradient452"><stop
         style="stop-opacity:1;stop-color:#febbba"
         offset="0"
         id="stop448" /><stop
         style="stop-opacity:1;stop-color:#ff928e"
         offset="1"
         id="stop450" /></linearGradient><clipPath
       clipPathUnits="userSpaceOnUse"
       id="clipPath462"><path
         d="m 27795.6,14988.4 c -2.6,-0.2 -5.2,-0.2 -7.9,-0.2 l -3454.9,3.7 c -85.4,0.1 -154.6,68.7 -154.5,153.2 0.1,84.5 69.7,154.3 154.8,152.8 l 3454.9,-3.7 c 85.4,-0.1 154.6,-68.7 154.5,-153.2 -0.1,-81.8 -65.2,-148.6 -146.9,-152.6 z"
         id="path460" /></clipPath><linearGradient
       x1="0"
       y1="0"
       x2="1"
       y2="0"
       gradientUnits="userSpaceOnUse"
       gradientTransform="matrix(-2742.37,-899.44,-899.44,2742.37,28381.6,15904.6)"
       spreadMethod="pad"
       id="linearGradient468"><stop
         style="stop-opacity:1;stop-color:#09005d"
         offset="0"
         id="stop464" /><stop
         style="stop-opacity:1;stop-color:#1a0f91"
         offset="1"
         id="stop466" /></linearGradient><clipPath
       clipPathUnits="userSpaceOnUse"
       id="clipPath478"><path
         d="m 21227,18092.1 h 2877.2 c 212.3,0 405.5,-121.2 496,-311.2 l 1330.2,-2790.7 h -3575.7 c -136.8,0 -259.7,82.7 -309.9,208.6 l -1031.5,2582.4 c -59.6,149.2 51.5,310.9 213.7,310.9 z"
         id="path476" /></clipPath><linearGradient
       x1="0"
       y1="0"
       x2="1"
       y2="0"
       gradientUnits="userSpaceOnUse"
       gradientTransform="matrix(-1963.33,-2075.12,-2075.12,1963.33,24607.1,17680.7)"
       spreadMethod="pad"
       id="linearGradient484"><stop
         style="stop-opacity:1;stop-color:#09005d"
         offset="0"
         id="stop480" /><stop
         style="stop-opacity:1;stop-color:#1a0f91"
         offset="1"
         id="stop482" /></linearGradient><clipPath
       clipPathUnits="userSpaceOnUse"
       id="clipPath494"><path
         d="m 23254.1,16661.2 c 62.3,-191.7 16.2,-377.8 -102.9,-415.8 -119.2,-37.9 -266.4,86.7 -328.7,278.3 -62.4,191.7 -16.3,377.9 102.9,415.8 119.1,38 266.3,-86.6 328.7,-278.3 z"
         id="path492" /></clipPath><linearGradient
       x1="0"
       y1="0"
       x2="1"
       y2="0"
       gradientUnits="userSpaceOnUse"
       gradientTransform="matrix(-887.485,-1336.45,-1336.45,887.485,23416.5,17162.1)"
       spreadMethod="pad"
       id="linearGradient500"><stop
         style="stop-opacity:1;stop-color:#4042e2"
         offset="0"
         id="stop496" /><stop
         style="stop-opacity:1;stop-color:#4f52ff"
         offset="1"
         id="stop498" /></linearGradient></defs><sodipodi:namedview
     pagecolor="#ffffff"
     bordercolor="#666666"
     borderopacity="1"
     objecttolerance="10"
     gridtolerance="10"
     guidetolerance="10"
     inkscape:pageopacity="0"
     inkscape:pageshadow="2"
     inkscape:window-width="640"
     inkscape:window-height="480"
     id="namedview4" /><g
     id="g10"
     inkscape:groupmode="layer"
     inkscape:label="ink_ext_XXXXXX"
     transform="matrix(1.3333333,0,0,-1.3333333,0,4946.6667)"><g
       id="g12"
       transform="scale(0.1)"><path
         d="M 0,0 H 37100 V 37100 H 0 Z"
         style="fill:none;fill-opacity:1;fill-rule:nonzero;stroke:none"
         id="path14" /><g
         id="g16"><g
           id="g18"
           clip-path="url(#clipPath22)"><path
             d="m 16504.2,4550 c -538.3,0 -1067.8,26.1 -1584.4,78 -1596.9,160.3 -4809.9,482.8 -7280.84,2902.7 -8.97,8.8 -17.72,17.3 -26.65,26.2 H 26363 C 23403.2,5523.2 19790.4,4550 16504.2,4550 M 6283.9,9216.7 C 3138.16,14211.1 4318.92,22306.9 8520.54,27236.6 9116.95,27936.4 13178.4,32550 19397,32550 c 115.2,0 230.9,-1.6 347.6,-4.8 4696.5,-129.6 7947.1,-2840.7 8342.3,-3178.3 499.1,-426.4 1598.8,-1438.3 2578,-3030.2 2251.8,-3660.7 2412.3,-8688.7 691.4,-12749.9 l 119.4,8248.6 c 0,235.8 -267.9,688.1 -760.4,688.1 -18.3,0 -37,-0.6 -55.9,-1.9 l -2628.6,68 179.7,3691.5 -2683.9,2964.9 -14439.3,88.4 c -1.7,0 -3.5,0 -5.2,0 -472.1,0 -848.8,-395.2 -825.4,-867.4 l 262.7,-5424.3 -3386.28,87.7 c -9.7,0.2 -19.43,0.3 -29.1,0.3 -296.82,0 -581.99,-117.5 -792.67,-327.5 -217.54,-216.8 -336.57,-513.2 -329.31,-820.2 L 6283.9,9216.7"
             style="fill:url(#linearGradient28);fill-opacity:1;fill-rule:nonzero;stroke:none"
             id="path30" /></g></g><g
         id="g32"><g
           id="g34"
           clip-path="url(#clipPath38)"><path
             d="M 30830.2,7556.9 H 6757.79 c -244.84,0 -445.16,200.1 -445.16,444.7 L 6283.9,9216.7 5982.04,21983 c -7.26,307 111.77,603.4 329.31,820.2 210.68,210 495.85,327.5 792.67,327.5 9.67,0 19.4,-0.1 29.1,-0.3 l 3386.28,-87.7 25.6,-528.8 -3319.35,89 c -7.04,0.2 -14.1,0.3 -21.12,0.3 -208.28,0 -408.36,-82.6 -556.24,-230.1 -152.85,-152.5 -236.92,-361.1 -231.51,-576.9 L 6752.11,8428.3 c 0,-231.6 189.52,-421.2 421.16,-421.2 h 4074.13 l 2.7,-54.9 h 16068.2 l 2.7,54.9 h 2928.7 c 231.7,0 421.2,189.6 421.2,421.2 l 189,12558.4 c -21.6,734.8 -648.7,1012 -1052.6,1012 -11.5,0 -22.8,-0.2 -33.9,-0.7 l -1769.1,47.5 26.5,544.1 2628.6,-68 c 18.9,1.3 37.6,1.9 55.9,1.9 492.5,0 760.4,-452.3 760.4,-688.1 l -119.4,-8248.6 -80.9,-5585.2 c 0,-244.6 -200.3,-444.7 -445.2,-444.7"
             style="fill:url(#linearGradient44);fill-opacity:1;fill-rule:nonzero;stroke:none"
             id="path46" /></g></g><g
         id="g48"><g
           id="g50"
           clip-path="url(#clipPath54)"><path
             d="M 30249.7,8007.1 H 27321 l 665.4,13670.2 1576.2,-42.3 c 1.9,0.1 8.8,0.3 20,0.3 87.5,0 434.2,-14.8 662.1,-233.1 137.6,-131.9 207.9,-316.9 209,-548.6 l -57.3,-3900.8 c -0.5,-34 26.7,-62.1 60.8,-62.6 h 1 c 33.6,0 61.1,27 61.6,60.8 l 57.3,3902 c -1.2,267.6 -84.3,482.4 -247.1,638.3 -256.3,245.6 -626.4,267.7 -738.7,267.7 -14.4,0 -24.6,-0.4 -29.7,-0.7 l -1569.2,42.1 11.9,245.1 1769.1,-47.5 c 11.1,0.5 22.4,0.7 33.9,0.7 403.9,0 1031,-277.2 1052.6,-1012 l -189,-12558.4 c 0,-231.6 -189.5,-421.2 -421.2,-421.2 m -19002.3,0 H 7173.27 c -231.64,0 -421.16,189.6 -421.16,421.2 l -335.33,13367.9 c -5.41,215.8 78.66,424.4 231.51,576.9 147.88,147.5 347.96,230.1 556.24,230.1 7.02,0 14.08,-0.1 21.12,-0.3 l 3319.35,-89 702.4,-14506.8"
             style="fill:url(#linearGradient60);fill-opacity:1;fill-rule:nonzero;stroke:none"
             id="path62" /></g></g><path
         d="m 30421.5,14394.4 h -0.9 c -34.1,0.5 -61.3,28.5 -60.8,62.7 l 14.9,1018.4 c 0.5,33.8 28.1,60.8 61.7,60.8 h 0.9 c 34.1,-0.5 61.4,-28.5 60.8,-62.6 l -14.9,-1018.5 c -0.5,-33.7 -28,-60.8 -61.7,-60.8"
         style="fill:#91b3fa;fill-opacity:1;fill-rule:nonzero;stroke:none"
         id="path64" /><path
         d="m 30458.2,16890.2 h -1 c -34.1,0.5 -61.3,28.6 -60.8,62.6 l 57.3,3900.8 c -1.1,231.7 -71.4,416.7 -209,548.6 -257,246.2 -665,233.6 -682.1,232.8 l -7206.8,193.3 c -34.1,0.8 -61,29.2 -60.1,63.3 0.9,34.1 27.1,63.1 63.4,60 l 7202.5,-193.3 c 44.8,2.7 479.2,10.2 768.4,-267 162.8,-155.9 245.9,-370.7 247.1,-638.3 l -57.3,-3902 c -0.5,-33.8 -28,-60.8 -61.6,-60.8"
         style="fill:#91b3fa;fill-opacity:1;fill-rule:nonzero;stroke:none"
         id="path66" /><g
         id="g68"><g
           id="g70"
           clip-path="url(#clipPath74)"><path
             d="m 4416.3,6408.5 h 28267.4 c 31.1,0 56.5,25.4 56.5,56.5 v 1102.5 c 0,31 -25.4,56.5 -56.5,56.5 H 4416.3 c -31.09,0 -56.54,-25.5 -56.54,-56.5 V 6465 c 0,-31.1 25.45,-56.5 56.54,-56.5"
             style="fill:url(#linearGradient80);fill-opacity:1;fill-rule:nonzero;stroke:none"
             id="path82" /></g></g><path
         d="m 25526.6,29246 -14439.3,88.4 c -474.5,2.9 -854.1,-393.5 -830.6,-867.4 l 993.4,-20514.8 h 16068.2 l 892.2,18328.9 -2683.9,2964.9"
         style="fill:#91b3fa;fill-opacity:1;fill-rule:nonzero;stroke:none"
         id="path84" /><path
         d="m 26127,26368.9 c -470.4,16.6 -832,422 -794.9,891.2 l 154.8,1958.9 2726.4,-2925.9 -2086.3,75.8"
         style="fill:#7d97f4;fill-opacity:1;fill-rule:nonzero;stroke:none"
         id="path86" /><path
         d="m 13508.3,16220.2 c 2001.7,32.4 9685.4,165 11625.6,198.5 244.8,4.2 446,-144.1 444.7,-327.3 -1.2,-174.4 -186.6,-316.3 -419.5,-321.1 l -11618.4,-240.5 c -223.8,-4.7 -416.2,119.1 -443.8,285.5 l -7,42 c -31.5,190.3 162.5,358.8 418.4,362.9"
         style="fill:#bdd0fb;fill-opacity:1;fill-rule:nonzero;stroke:none"
         id="path88" /><path
         d="m 13368.2,14183.5 v 0 c 33.7,-42.8 95.5,-69 161.8,-68.4 l 7977.2,73.3 c 100.2,0.9 180.7,61.6 181.3,136.6 l 2.8,393.5 c 0.5,78.2 -85.8,141.4 -190.2,139.2 l -7755.4,-162.1 c -345.4,-7.2 -552.9,-288.7 -377.5,-512.1"
         style="fill:#bdd0fb;fill-opacity:1;fill-rule:nonzero;stroke:none"
         id="path90" /><path
         d="m 13469.8,12660.3 c 2001.6,32.4 9685.3,165 11625.6,198.5 244.7,4.2 445.9,-144 444.6,-327.3 -1.2,-174.4 -186.5,-316.2 -419.5,-321.1 l -11618.4,-240.5 c -223.8,-4.7 -416.1,119.1 -443.8,285.5 l -6.9,42.1 c -31.6,190.2 162.4,358.7 418.4,362.8"
         style="fill:#bdd0fb;fill-opacity:1;fill-rule:nonzero;stroke:none"
         id="path92" /><path
         d="m 13329.7,10623.7 v 0 c 33.6,-42.9 95.5,-69 161.8,-68.4 l 7977.2,73.2 c 100.2,0.9 180.7,61.6 181.2,136.6 l 2.8,393.6 c 0.5,78.2 -85.8,141.3 -190.2,139.1 l -7755.4,-162.1 c -345.4,-7.2 -552.9,-288.6 -377.4,-512"
         style="fill:#bdd0fb;fill-opacity:1;fill-rule:nonzero;stroke:none"
         id="path94" /><path
         d="m 21680.7,20322.5 c -1.1,0 -2.2,0 -3.3,0 l -4503.3,60.4 c -77.9,1.1 -146.7,51.5 -169.7,124.7 l -1362.1,4352.6 -752.7,-17.8 c -1.7,0 -3.3,0 -5,0 -92.1,0 -166,61.3 -166,153.9 0,94.3 76.5,160 171,162.5 l 880.8,23.1 c 1.6,0.1 3.2,0.1 4.8,0.1 74.3,0 139.4,-45.5 161.5,-115.7 l 162.1,-514.8 6415.8,134.5 c 2.3,0.1 4.5,0.1 6.8,0.1 67.9,0 131.5,-21.8 172.5,-72.3 42.4,-52.1 55.7,-117.9 36,-181.9 l -758.3,-2451.7 c -27.5,-89.1 -114,-153.5 -212.3,-153.5 -0.1,0 -0.2,0 -0.3,0 l -4804.3,7.3 350.8,-1130.1 4371.9,-47.1 c 105.7,-1.2 191.5,-69.6 191.5,-169.5 0,-98.9 -84,-164.8 -188.2,-164.8"
         style="fill:#e9f0fe;fill-opacity:1;fill-rule:nonzero;stroke:none"
         id="path96" /><path
         d="m 17851.3,18800.5 c -6.1,0 -12.2,0.1 -18.4,0.3 -370.5,9.7 -670.3,310.6 -670.3,670.8 0,356.7 293.9,642.9 659.4,642.9 3.6,0 7.3,0 10.9,0 372.8,-5.8 677.7,-306.9 677.7,-671.1 0,-358.2 -294.9,-642.9 -659.3,-642.9 m -24.4,963.7 c -170.4,0 -307.7,-133.4 -307.7,-300 0,-168.6 140.5,-309.1 313.7,-313.1 2.6,-0.1 5.1,-0.1 7.7,-0.1 170.1,0 307.6,133.1 307.6,300 0,169.5 -141.6,309.9 -315.3,313.1 -2,0.1 -4,0.1 -6,0.1"
         style="fill:#e9f0fe;fill-opacity:1;fill-rule:nonzero;stroke:none"
         id="path98" /><path
         d="m 20854.6,18721.6 c -6.5,0 -13.1,0.1 -19.8,0.3 -388.8,10.2 -703.4,318.7 -703.4,687.7 0,365.2 308.2,658.3 691.7,658.3 3.9,0 7.8,-0.1 11.7,-0.1 391.3,-6.1 711.5,-314.7 711.5,-687.8 0,-366.9 -309.4,-658.4 -691.7,-658.4 m -26.2,987.3 c -178.8,0 -322.8,-136.5 -322.8,-307.2 0,-172.7 147.5,-316.6 329.2,-320.9 2.8,-0.1 5.5,-0.1 8.3,-0.1 178.5,0 322.7,136.2 322.7,307.2 0,173.6 -148.7,317.6 -331,321 -2.1,0 -4.3,0 -6.4,0"
         style="fill:#e9f0fe;fill-opacity:1;fill-rule:nonzero;stroke:none"
         id="path100" /><path
         d="m 19019.6,17189 c -3037.8,0 -5509.1,2471.4 -5509.1,5509.1 0,3037.8 2471.3,5509.2 5509.1,5509.2 3037.7,0 5509.1,-2471.4 5509.1,-5509.2 0,-3037.7 -2471.4,-5509.1 -5509.1,-5509.1 m 0,10744.1 c -2886.6,0 -5235,-2348.4 -5235,-5235 0,-2886.6 2348.4,-5235 5235,-5235 2886.6,0 5235,2348.4 5235,5235 0,2886.6 -2348.4,5235 -5235,5235"
         style="fill:#eaf1fe;fill-opacity:1;fill-rule:nonzero;stroke:none"
         id="path102" /><g
         id="g104"><g
           id="g106"
           clip-path="url(#clipPath110)"><path
             d="m 19091.8,22012.4 c -85,-5.6 -164.2,34 -208.2,104.7 l -739.5,1187.5 c -69.3,111.2 -32,263.7 83.4,340.4 115.2,76.6 264.7,48.6 334,-62.6 l 512.8,-824.3 676.7,1378.2 c 60.7,123.7 206.6,180.4 325.8,126.8 119.1,-53.7 166.5,-197.3 105.9,-320.9 l -874.5,-1782.5 c -40,-81.6 -119.6,-137.7 -207.8,-146.6 -2.9,-0.3 -5.7,-0.5 -8.6,-0.7"
             style="fill:url(#linearGradient116);fill-opacity:1;fill-rule:nonzero;stroke:none"
             id="path118" /></g></g><g
         id="g120"><g
           id="g122"
           clip-path="url(#clipPath126)"><path
             d="m 8720.3,17583.8 c -46.11,0 -84.16,36.6 -85.58,83 -0.94,31.1 -20.73,771.6 197.27,1562.4 293.65,1065 882.56,1696.3 1703.11,1825.4 402,63.4 760.3,-31.6 1064.9,-282 992.6,-816.5 1087,-3007.1 1090.6,-3099.9 1.8,-47.3 -35.1,-87.1 -82.4,-88.9 -47.6,-1.1 -87,35.1 -88.8,82.4 -0.9,21.9 -95.1,2206.7 -1028.4,2974.2 -265.1,217.9 -577.7,300.4 -929.3,245 -1823.73,-287.1 -1756.61,-3184.1 -1755.71,-3213.4 1.44,-47.3 -35.74,-86.8 -83.03,-88.2 h -2.66"
             style="fill:url(#linearGradient132);fill-opacity:1;fill-rule:nonzero;stroke:none"
             id="path134" /></g></g><g
         id="g136"><g
           id="g138"
           clip-path="url(#clipPath142)"><path
             d="m 5111.79,8204 1472.03,10151.1 5529.88,93 L 13896,7639.8 H 5590.62 c -295.43,0 -521.94,266.9 -478.83,564.2"
             style="fill:url(#linearGradient148);fill-opacity:1;fill-rule:nonzero;stroke:none"
             id="path150" /></g></g><g
         id="g152"><g
           id="g154"
           clip-path="url(#clipPath158)"><path
             d="m 13187.6,18355.1 -1073.9,93 L 13896,7639.8 h 1066.2 c 216.2,0 377.7,202 333.7,417.3 l -2108.3,10298"
             style="fill:url(#linearGradient164);fill-opacity:1;fill-rule:nonzero;stroke:none"
             id="path166" /></g></g><g
         id="g168"><g
           id="g170"
           clip-path="url(#clipPath174)"><path
             d="m 11416.7,17607 c -45.8,0 -83.8,36.2 -85.6,82.4 -0.8,22 -95.1,2206.8 -1028.4,2974.2 -265,217.9 -577.6,300.4 -929.21,245 -1822.32,-286.8 -1756.63,-3184.1 -1755.75,-3213.3 1.41,-47.3 -35.75,-86.8 -83.04,-88.2 -47.8,-2 -86.77,35.7 -88.23,83 -0.93,31.1 -20.73,771.6 197.29,1562.3 293.63,1065.1 882.55,1696.3 1703.1,1825.5 402.07,63.3 760.34,-31.6 1064.84,-282.1 992.7,-816.5 1087.1,-3007 1090.6,-3099.9 1.8,-47.3 -35,-87 -82.3,-88.8 -1.1,-0.1 -2.2,-0.1 -3.3,-0.1"
             style="fill:url(#linearGradient180);fill-opacity:1;fill-rule:nonzero;stroke:none"
             id="path182" /></g></g><g
         id="g184"><g
           id="g186"
           clip-path="url(#clipPath190)"><path
             d="m 26172.3,5457.6 c 362.4,-31.3 991.2,-82.2 1487,-104 298,-13.1 469.6,16 568.4,55.6 -0.2,-11.1 -0.5,-21.7 -0.9,-31.4 -2.3,-52.2 -44.7,-93.9 -97.4,-96.9 -936.8,-52.3 -1681.9,-18.1 -1947.1,-1.9 -54.8,3.3 -87.5,62.9 -59.5,109.7 14.1,23.4 31,46.3 49.5,68.9"
             style="fill:url(#linearGradient196);fill-opacity:1;fill-rule:nonzero;stroke:none"
             id="path198" /></g></g><g
         id="g200"><g
           id="g202"
           clip-path="url(#clipPath206)"><path
             d="m 27659.3,5353.6 c -495.8,21.8 -1124.6,72.7 -1487,104 356.3,437.1 1487,731.7 1487,731.7 h 319.4 c 219.6,-316.6 251.4,-618.1 249,-780.1 -98.8,-39.6 -270.4,-68.7 -568.4,-55.6"
             style="fill:url(#linearGradient212);fill-opacity:1;fill-rule:nonzero;stroke:none"
             id="path214" /></g></g><g
         id="g216"><g
           id="g218"
           clip-path="url(#clipPath222)"><path
             d="m 28032.4,6710.6 -29.9,-591.4 c -3.2,-64 -51.1,-117.8 -115.3,-127 -63.8,-9.1 -149.2,-10.3 -239.9,19.9 -55.7,18.6 -97.1,65.5 -107.4,122.8 l -103.2,575.7 h 595.7"
             style="fill:url(#linearGradient228);fill-opacity:1;fill-rule:nonzero;stroke:none"
             id="path230" /></g></g><g
         id="g232"><g
           id="g234"
           clip-path="url(#clipPath238)"><path
             d="m 31739,4775.4 c 157.1,28.3 228.2,133.8 258.1,246.6 0.1,-1 0.3,-2 0.5,-3 23.2,-119 -30.4,-242.3 -137.6,-301 -129.5,-70.8 -271.1,-82.9 -381,-77.1 -118,6.3 -226.2,69.4 -285.7,170.3 l -0.9,1.6 c 118.4,-75.7 284.6,-84.7 546.6,-37.4"
             style="fill:url(#linearGradient244);fill-opacity:1;fill-rule:nonzero;stroke:none"
             id="path246" /></g></g><g
         id="g248"><g
           id="g250"
           clip-path="url(#clipPath254)"><path
             d="m 30998.1,6528.4 h 263.4 c 401.2,10.6 653.1,-1082.9 735.6,-1506.4 -29.9,-112.8 -101,-218.3 -258.1,-246.6 -262,-47.3 -428.2,-38.3 -546.6,37.4 -216.7,368.6 -324.2,908.4 -375.8,1223.5 -58.8,358.3 181.5,492.1 181.5,492.1"
             style="fill:url(#linearGradient260);fill-opacity:1;fill-rule:nonzero;stroke:none"
             id="path262" /></g></g><g
         id="g264"><g
           id="g266"
           clip-path="url(#clipPath270)"><path
             d="m 31227.7,7077.4 146.2,-581.7 c 17.9,-71.3 -16.2,-145.1 -82.1,-178.9 -81.8,-42 -197,-86.1 -302.9,-73.4 -49.8,6 -91.1,41.1 -107.6,88 l -214.7,612 561.1,134"
             style="fill:url(#linearGradient276);fill-opacity:1;fill-rule:nonzero;stroke:none"
             id="path278" /></g></g><g
         id="g280"><g
           id="g282"
           clip-path="url(#clipPath286)"><path
             d="m 26083.1,14738.2 c 0,0 1306.9,-8169.3 1285.4,-8214.2 0,0 360.9,-164.1 754.4,-21 0,0 -118.1,4367.1 -395.1,6041.6 0,0 2230.5,-3903.3 2938.8,-5848.3 0,0 369.4,44.1 675.2,245.3 0,0 -2401.5,7025.8 -3042.3,7961.6 l -2216.4,-165"
             style="fill:url(#linearGradient292);fill-opacity:1;fill-rule:nonzero;stroke:none"
             id="path294" /></g></g><g
         id="g296"><g
           id="g298"
           clip-path="url(#clipPath302)"><path
             d="m 27675.7,12587.1 c 7,0 14,1.9 20.4,5.9 18.1,11.3 23.5,35.1 12.2,53.2 l -488.3,780.1 c -5.7,9 -14.8,15.3 -25.1,17.4 l -359.5,72.3 c -21,4.2 -41.2,-9.4 -45.4,-30.2 -4.2,-20.9 9.3,-41.3 30.2,-45.5 l 343.1,-69 479.6,-766 c 7.3,-11.7 19.9,-18.2 32.8,-18.2"
             style="fill:url(#linearGradient308);fill-opacity:1;fill-rule:nonzero;stroke:none"
             id="path310" /></g></g><g
         id="g312"><g
           id="g314"
           clip-path="url(#clipPath318)"><path
             d="m 20085.7,22737.8 c 0,0 881.9,-194.5 1418.3,-442.2 106.5,-49.2 191.5,-135.2 239.9,-241.2 160.4,-351.4 640.4,-1232.6 1571.2,-1653.1 -134.1,-177.9 -349.9,-548 -443.9,-1170 -559.1,416.1 -1041.7,1111 -1273.4,2250.6 0,0 -176.5,-95.9 -396.6,11 -116.3,56.5 -250.5,136.6 -351.3,199.6 -100.5,62.7 -175.3,160.3 -204.3,274.3 -38.4,150.5 -15.8,282.8 -15.8,424.8 l -453.3,140.5 c 0,0 -136.3,51.4 -90.8,205.7"
             style="fill:url(#linearGradient324);fill-opacity:1;fill-rule:nonzero;stroke:none"
             id="path326" /></g></g><g
         id="g328"><g
           id="g330"
           clip-path="url(#clipPath334)"><path
             d="m 22871.2,19231.3 c 94,622 309.8,992.1 443.9,1170 578.2,-261.3 1330.4,-344.8 2288.2,-12.9 88.3,30.6 180.4,48.5 273.7,54 509.9,29.9 2190.2,84.5 3580.6,-374.9 292.6,-96.7 529.6,-313 651.7,-593.3 376.1,-863.1 985,-2828.7 -705.4,-3821.1 -129.9,322.4 -279.8,581.6 -407.9,772.1 272.2,459.1 352.8,1086.3 -130.3,1903 -352.2,-951.2 -517.5,-2339 -552,-2953.2 -11.4,-202.2 24.1,-404.1 103.4,-590.7 l 8.7,-20.4 c 17,-40 -6.4,-85.9 -49.1,-95.5 -951.6,-213.7 -1941.4,-155.7 -2237.1,-131.2 -52.8,4.3 -96.7,42.1 -108.8,93.1 -462.7,1949.9 -463.8,3280 -350.5,4120.8 -432.9,-96.8 -1756.6,-303.2 -2809.1,480.2"
             style="fill:url(#linearGradient340);fill-opacity:1;fill-rule:nonzero;stroke:none"
             id="path342" /></g></g><g
         id="g344"><g
           id="g346"
           clip-path="url(#clipPath350)"><path
             d="m 25678.4,18698.6 c 19.1,0 35.7,14.2 38.3,33.6 108.6,820.9 330,1179.2 332.1,1182.7 11.4,18 6.1,41.9 -11.9,53.3 -18,11.3 -41.8,6 -53.2,-11.9 -9.5,-14.9 -232.3,-373.6 -343.6,-1214 -2.8,-21.1 12.1,-40.5 33.2,-43.3 1.8,-0.3 3.4,-0.4 5.1,-0.4"
             style="fill:url(#linearGradient356);fill-opacity:1;fill-rule:nonzero;stroke:none"
             id="path358" /></g></g><g
         id="g360"><g
           id="g362"
           clip-path="url(#clipPath366)"><path
             d="m 28026.9,21578.3 c 0,0 96.3,-1017.9 181.1,-1319 12.8,-45.7 -7,-93.9 -48.5,-117.6 -143.9,-82.2 -488.9,-216.3 -960.9,15 -76.5,37.5 -122.4,117.2 -118.9,201.6 l 41.6,983.6 905.6,236.4"
             style="fill:url(#linearGradient372);fill-opacity:1;fill-rule:nonzero;stroke:none"
             id="path374" /></g></g><g
         id="g376"><g
           id="g378"
           clip-path="url(#clipPath382)"><path
             d="m 27100.5,22880.5 c 0,0 -307.9,-707.3 -328.6,-1078.6 -20.6,-371.3 -100.6,-612.2 328.6,-686.9 429.3,-74.8 790.9,139.1 986.9,508.9 0,0 306.9,569.8 238.1,803.2 -68.9,233.4 -1225,453.4 -1225,453.4"
             style="fill:url(#linearGradient388);fill-opacity:1;fill-rule:nonzero;stroke:none"
             id="path390" /></g></g><g
         id="g392"><g
           id="g394"
           clip-path="url(#clipPath398)"><path
             d="m 27940.7,21889.8 -24.5,10.7 c -31.1,13.8 -44.4,50.8 -28.8,81 60.6,116.9 178.6,385 26.1,447.5 -196.4,80.6 -974.7,239.3 -1142.6,515.4 -161.4,265.4 -18.4,608 196.5,705.4 14.4,6.6 31.4,1.4 38.7,-12.6 l 17.9,-33.9 c 12.3,-23.2 46.6,-19.6 53.9,5.6 6.9,24.2 39.1,28.8 52.5,7.5 51.6,-82.6 190.9,-216.6 563.6,-285.3 529.5,-97.8 879.7,-312.1 888.4,-678 0.5,-23.3 25.3,-36.2 45.1,-24.1 39.1,23.8 101.7,35 185.3,-35.3 145.5,-122.3 86,-439.5 -232.9,-700.5 -15.1,-12.4 -15,-36 1.4,-46.7 57.8,-37.6 144,-127.2 -79.3,-246.5 -230.9,-123.5 -403.4,-113.3 -469.8,-102.4 -16.5,2.7 -27.1,18.7 -23.5,35.1 l 70.9,321.6 c 4,18.2 -9.9,35.5 -28.5,35.5 h -110.4"
             style="fill:url(#linearGradient404);fill-opacity:1;fill-rule:nonzero;stroke:none"
             id="path406" /></g></g><g
         id="g408"><g
           id="g410"
           clip-path="url(#clipPath414)"><path
             d="m 27927.3,21821.9 c 0,0 117.5,451.8 320.1,325.2 202.6,-126.7 -105.1,-506.3 -268,-523.2 l -52.1,198"
             style="fill:url(#linearGradient420);fill-opacity:1;fill-rule:nonzero;stroke:none"
             id="path422" /></g></g><g
         id="g424"><g
           id="g426"
           clip-path="url(#clipPath430)"><path
             d="m 21362.6,21587 c 8.5,0 17.2,2.8 24.3,8.7 16.5,13.4 19,37.7 5.6,54.3 -33.4,41 -329.3,402.8 -443.3,467.2 -41.5,23.5 -66.2,47.7 -71.5,70 -2.5,10.7 -0.8,22.7 5.2,36.3 l 347.7,-69.7 197,-169 c 16.1,-13.9 40.6,-12.1 54.4,4.1 13.9,16.2 12.1,40.6 -4.1,54.5 l -204.7,175.6 c -5,4.3 -11,7.2 -17.5,8.6 l -385,77.1 c -15.4,3.1 -30.9,-3.4 -39.6,-16.3 -28.2,-41.8 -37.5,-80.8 -28.5,-118.9 10.6,-45.1 46.1,-84.2 108.6,-119.5 85.8,-48.4 333.3,-340.4 421.4,-448.8 7.6,-9.3 18.8,-14.2 30,-14.2"
             style="fill:url(#linearGradient436);fill-opacity:1;fill-rule:nonzero;stroke:none"
             id="path438" /></g></g><g
         id="g440"><g
           id="g442"
           clip-path="url(#clipPath446)"><path
             d="m 27942.3,15163.9 -1361.1,-16.8 476.4,448.4 c 118.4,111.4 299.1,129.5 435.8,40.8 80,-51.9 166.8,-122.3 242,-215.6 0,0 849,310.2 1260.6,1004.5 128.1,-190.5 278,-449.7 407.9,-772.1 -368.9,-216.6 -847.2,-386.9 -1461.6,-489.2"
             style="fill:url(#linearGradient452);fill-opacity:1;fill-rule:nonzero;stroke:none"
             id="path454" /></g></g><g
         id="g456"><g
           id="g458"
           clip-path="url(#clipPath462)"><path
             d="m 27795.6,14988.4 c -2.6,-0.2 -5.2,-0.2 -7.9,-0.2 l -3454.9,3.7 c -85.4,0.1 -154.6,68.7 -154.5,153.2 0.1,84.5 69.7,154.3 154.8,152.8 l 3454.9,-3.7 c 85.4,-0.1 154.6,-68.7 154.5,-153.2 -0.1,-81.8 -65.2,-148.6 -146.9,-152.6"
             style="fill:url(#linearGradient468);fill-opacity:1;fill-rule:nonzero;stroke:none"
             id="path470" /></g></g><g
         id="g472"><g
           id="g474"
           clip-path="url(#clipPath478)"><path
             d="m 21227,18092.1 h 2877.2 c 212.3,0 405.5,-121.2 496,-311.2 l 1330.2,-2790.7 h -3575.7 c -136.8,0 -259.7,82.7 -309.9,208.6 l -1031.5,2582.4 c -59.6,149.2 51.5,310.9 213.7,310.9"
             style="fill:url(#linearGradient484);fill-opacity:1;fill-rule:nonzero;stroke:none"
             id="path486" /></g></g><g
         id="g488"><g
           id="g490"
           clip-path="url(#clipPath494)"><path
             d="m 23254.1,16661.2 c 62.3,-191.7 16.2,-377.8 -102.9,-415.8 -119.2,-37.9 -266.4,86.7 -328.7,278.3 -62.4,191.7 -16.3,377.9 102.9,415.8 119.1,38 266.3,-86.6 328.7,-278.3"
             style="fill:url(#linearGradient500);fill-opacity:1;fill-rule:nonzero;stroke:none"
             id="path502" /></g></g></g></g></svg>
